<svg xmlns="http://www.w3.org/2000/svg" viewBox="0 0 256 256" width="256" height="256">

<defs>
  <mask id="m1">
    <rect width="100%" height="100%" fill="white"/>
    <circle cx="146" cy="100" r="58" fill="black"/>
  </mask>
</defs>
<circle cx="120" cy="110" r="62" fill="#f6e59a" mask="url(#m1)"/>

<polygon points="176.0,72.0 179.7,80.9 189.3,81.7 182.0,87.9 184.2,97.3 176.0,92.3 167.8,97.3 170.0,87.9 162.7,81.7 172.3,80.9" fill="#f6e59a"/>
<polygon points="206.0,51.0 208.4,56.7 214.6,57.2 209.9,61.3 211.3,67.3 206.0,64.0 200.7,67.3 202.1,61.3 197.4,57.2 203.6,56.7" fill="#f6e59a"/>
<polygon points="195.0,110.0 197.6,116.4 204.5,116.9 199.3,121.4 200.9,128.1 195.0,124.5 189.1,128.1 190.7,121.4 185.5,116.9 192.4,116.4" fill="#f6e59a"/>
</svg>
