<svg xmlns="http://www.w3.org/2000/svg" viewBox="0 0 256 256" width="256" height="256">
<line x1="192.0" y1="110.0" x2="216.0" y2="110.0" stroke="#f2c300" stroke-width="10" stroke-linecap="round"/>
<line x1="187.1" y1="134.5" x2="209.3" y2="143.7" stroke="#f2c300" stroke-width="10" stroke-linecap="round"/>
<line x1="173.3" y1="155.3" x2="190.2" y2="172.2" stroke="#f2c300" stroke-width="10" stroke-linecap="round"/>
<line x1="152.5" y1="169.1" x2="161.7" y2="191.3" stroke="#f2c300" stroke-width="10" stroke-linecap="round"/>
<line x1="128.0" y1="174.0" x2="128.0" y2="198.0" stroke="#f2c300" stroke-width="10" stroke-linecap="round"/>
<line x1="103.5" y1="169.1" x2="94.3" y2="191.3" stroke="#f2c300" stroke-width="10" stroke-linecap="round"/>
<line x1="82.7" y1="155.3" x2="65.8" y2="172.2" stroke="#f2c300" stroke-width="10" stroke-linecap="round"/>
<line x1="68.9" y1="134.5" x2="46.7" y2="143.7" stroke="#f2c300" stroke-width="10" stroke-linecap="round"/>
<line x1="64.0" y1="110.0" x2="40.0" y2="110.0" stroke="#f2c300" stroke-width="10" stroke-linecap="round"/>
<line x1="68.9" y1="85.5" x2="46.7" y2="76.3" stroke="#f2c300" stroke-width="10" stroke-linecap="round"/>
<line x1="82.7" y1="64.7" x2="65.8" y2="47.8" stroke="#f2c300" stroke-width="10" stroke-linecap="round"/>
<line x1="103.5" y1="50.9" x2="94.3" y2="28.7" stroke="#f2c300" stroke-width="10" stroke-linecap="round"/>
<line x1="128.0" y1="46.0" x2="128.0" y2="22.0" stroke="#f2c300" stroke-width="10" stroke-linecap="round"/>
<line x1="152.5" y1="50.9" x2="161.7" y2="28.7" stroke="#f2c300" stroke-width="10" stroke-linecap="round"/>
<line x1="173.3" y1="64.7" x2="190.2" y2="47.8" stroke="#f2c300" stroke-width="10" stroke-linecap="round"/>
<line x1="187.1" y1="85.5" x2="209.3" y2="76.3" stroke="#f2c300" stroke-width="10" stroke-linecap="round"/>
<circle cx="128" cy="110" r="48" fill="#ffd100"/>
</svg>
