<svg xmlns="http://www.w3.org/2000/svg" viewBox="0 0 256 256" width="256" height="256">
<path d="M64 152c-18 0-32-14-32-32s14-32 32-32c5 0 10 1 14 3 8-19 27-31 48-31 22 0 42 13 49 33 4-2 8-3 13-3 19 0 34 15 34 34s-15 34-34 34H64z" fill="#fff" stroke="#d8dbe0" stroke-width="6" stroke-linejoin="round" stroke-linecap="round"/>
<path d="M 84 174.0 C 92.0 186.0, 94.0 192.0, 84 202.0 C 74.0 192.0, 76.0 186.0, 84 174.0 Z" fill="#184b8a"/>
<path d="M 122 168.0 C 130.0 180.0, 132.0 186.0, 122 196.0 C 112.0 186.0, 114.0 180.0, 122 168.0 Z" fill="#184b8a"/>
<path d="M 160 174.0 C 168.0 186.0, 170.0 192.0, 160 202.0 C 150.0 192.0, 152.0 186.0, 160 174.0 Z" fill="#184b8a"/>
<path d="M 100 196.0 C 108.0 208.0, 110.0 214.0, 100 224.0 C 90.0 214.0, 92.0 208.0, 100 196.0 Z" fill="#184b8a"/>
<path d="M 138 196.0 C 146.0 208.0, 148.0 214.0, 138 224.0 C 128.0 214.0, 130.0 208.0, 138 196.0 Z" fill="#184b8a"/>
</svg>
