<svg xmlns="http://www.w3.org/2000/svg" viewBox="0 0 256 256" width="256" height="256">

<defs>
  <mask id="m2">
    <rect width="100%" height="100%" fill="white"/>
    <circle cx="160" cy="88" r="52" fill="black"/>
  </mask>
</defs>
<circle cx="138" cy="98" r="56" fill="#f6e59a" mask="url(#m2)"/>

<polygon points="188.0,60.0 191.2,67.6 199.4,68.3 193.1,73.7 195.1,81.7 188.0,77.4 180.9,81.7 182.9,73.7 176.6,68.3 184.8,67.6" fill="#f6e59a"/>
<polygon points="216.0,40.0 218.1,45.1 223.6,45.5 219.4,49.1 220.7,54.5 216.0,51.6 211.3,54.5 212.6,49.1 208.4,45.5 213.9,45.1" fill="#f6e59a"/>
<polygon points="210.0,101.0 212.4,106.7 218.6,107.2 213.9,111.3 215.3,117.3 210.0,114.0 204.7,117.3 206.1,111.3 201.4,107.2 207.6,106.7" fill="#f6e59a"/>
<polygon points="44.0,101.0 45.9,105.5 50.7,105.8 47.0,109.0 48.1,113.7 44.0,111.2 39.9,113.7 41.0,109.0 37.3,105.8 42.1,105.5" fill="#f6e59a"/>
<path d="M64 152c-18 0-32-14-32-32s14-32 32-32c5 0 10 1 14 3 8-19 27-31 48-31 22 0 42 13 49 33 4-2 8-3 13-3 19 0 34 15 34 34s-15 34-34 34H64z" fill="#fff" stroke="#d8dbe0" stroke-width="6" stroke-linejoin="round" stroke-linecap="round"/>
</svg>
